<svg viewBox="0 0 60 50" xmlns="http://www.w3.org/2000/svg">
<g filter="url(#filter0_dd)">
<path d="M24.6663 15.6666C23.6055 15.6666 22.5881 16.0881 21.8379 16.8382C21.0878 17.5883 20.6663 18.6058 20.6663 19.6666C20.6663 20.7275 21.0878 21.7449 21.8379 22.4951C22.5881 23.2452 23.6055 23.6666 24.6663 23.6666C25.7272 23.6666 26.7446 23.2452 27.4948 22.4951C28.2449 21.7449 28.6663 20.7275 28.6663 19.6666C28.6663 18.6058 28.2449 17.5883 27.4948 16.8382C26.7446 16.0881 25.7272 15.6666 24.6663 15.6666ZM35.333 15.6666C34.2721 15.6666 33.2547 16.0881 32.5046 16.8382C31.7544 17.5883 31.333 18.6058 31.333 19.6666C31.333 20.7275 31.7544 21.7449 32.5046 22.4951C33.2547 23.2452 34.2721 23.6666 35.333 23.6666C36.3939 23.6666 37.4113 23.2452 38.1614 22.4951C38.9116 21.7449 39.333 20.7275 39.333 19.6666C39.333 18.6058 38.9116 17.5883 38.1614 16.8382C37.4113 16.0881 36.3939 15.6666 35.333 15.6666ZM19.0179 21.0026C18.4337 21.025 17.1626 21.1756 16.3356 22.0026C15.2329 23.1052 15.3356 24.9974 15.3356 24.9974C15.3356 24.9974 17.2277 25.1 18.3304 23.9974C19.4331 22.8947 19.3304 21.0026 19.3304 21.0026C19.3304 21.0026 19.2126 20.9951 19.0179 21.0026ZM24.6663 26.3333C20.6663 26.3333 15.333 28.2853 15.333 31V33C15.333 33.736 15.9303 34.3333 16.6663 34.3333H32.6663C33.4023 34.3333 33.9997 33.736 33.9997 33V31C33.9997 28.2853 28.6663 26.3333 24.6663 26.3333ZM35.333 26.3333C34.9103 26.3333 34.471 26.3597 34.0283 26.401C35.6043 27.5543 36.6663 29.0786 36.6663 31V33C36.6663 33.736 37.2637 34.3333 37.9997 34.3333H43.333C44.069 34.3333 44.6663 33.736 44.6663 33V31C44.6663 28.2853 39.333 26.3333 35.333 26.3333Z" fill="#7A8189"/>
</g>
<defs>
<filter id="filter0_dd" x="-1" y="-6" width="62" height="62" filterUnits="userSpaceOnUse" color-interpolation-filters="sRGB">
<feFlood flood-opacity="0" result="BackgroundImageFix"/>
<feColorMatrix in="SourceAlpha" type="matrix" values="0 0 0 0 0 0 0 0 0 0 0 0 0 0 0 0 0 0 127 0"/>
<feOffset dx="-5" dy="-5"/>
<feGaussianBlur stdDeviation="5"/>
<feColorMatrix type="matrix" values="0 0 0 0 0 0 0 0 0 0 0 0 0 0 0 0 0 0 0.2 0"/>
<feBlend mode="normal" in2="BackgroundImageFix" result="effect1_dropShadow"/>
<feColorMatrix in="SourceAlpha" type="matrix" values="0 0 0 0 0 0 0 0 0 0 0 0 0 0 0 0 0 0 127 0"/>
<feOffset dx="5" dy="5"/>
<feGaussianBlur stdDeviation="5"/>
<feColorMatrix type="matrix" values="0 0 0 0 0.792157 0 0 0 0 0.831373 0 0 0 0 0.886275 0 0 0 0.12 0"/>
<feBlend mode="normal" in2="effect1_dropShadow" result="effect2_dropShadow"/>
<feBlend mode="normal" in="SourceGraphic" in2="effect2_dropShadow" result="shape"/>
</filter>
</defs>
</svg>
