<svg viewBox="0 0 58 58" xmlns="http://www.w3.org/2000/svg">
<g filter="url(#filter0_dd)">
<path d="M41.7503 15.6691C41.6336 15.6556 41.5099 15.6774 41.3909 15.7421L37.3596 17.9374C36.997 18.1347 36.8865 18.6413 37.1305 18.9947L40.1539 23.3827C40.4979 23.8813 41.2233 23.6901 41.318 23.0754L42.3258 16.4947C42.3908 16.0647 42.1004 15.7099 41.7503 15.6691ZM17.3753 15.6796C17.0644 15.7385 16.8079 15.991 16.7659 16.328L15.6721 25.6978C15.6028 26.2551 16.3234 26.534 16.6487 26.078L22.1982 17.9009C22.5075 17.4689 22.2819 16.8584 21.7659 16.729L17.6982 15.69C17.5882 15.6626 17.4789 15.6599 17.3753 15.6796ZM32.2945 15.6926C32.1886 15.7278 32.0922 15.8006 32.0185 15.9139L29.9872 19.0389L27.0732 17.8566C26.6345 17.7073 26.2169 18.1365 26.3622 18.5858L27.6669 22.1353V24.4087C27.6669 24.8114 28.0514 25.0966 28.4247 24.9686L32.0341 23.6822L34.857 24.6483C35.4104 24.8376 35.8854 24.2003 35.5628 23.703L33.0003 20.5884V16.2186C33.0003 15.8096 32.6124 15.5869 32.2945 15.6926ZM23.6591 23.6665C23.4263 23.6762 23.198 23.8116 23.0966 24.065L20.7164 30.0051L16.1461 31.1457C15.6381 31.2724 15.4946 31.9245 15.9039 32.2525L19.3362 34.9999L17.0419 40.0884C16.8033 40.6191 17.3485 41.1617 17.8805 40.9243L22.8518 38.7056L25.7268 42.1092C26.0602 42.5039 26.6991 42.3554 26.8258 41.854L27.9768 36.9999H32.3649C32.9129 36.9999 33.2041 36.3518 32.8388 35.9452L29.8805 32.9061L31.6096 29.9426C31.8483 29.5199 31.5429 28.9999 31.0576 28.9999H26.3336L24.2503 24.0155C24.1283 23.7715 23.892 23.6569 23.6591 23.6665ZM38.6591 30.3592L36.7841 30.841C36.4828 30.9183 36.2457 31.153 36.1643 31.453L35.6956 33.2108C35.6156 33.5081 35.6996 33.8255 35.9169 34.0441L37.2867 35.4139C37.5041 35.6313 37.8214 35.7153 38.1201 35.6353L39.8779 35.1639C40.1792 35.0839 40.4125 34.8481 40.4899 34.5467L40.9716 32.6717C41.0476 32.3771 40.9611 32.0609 40.7451 31.8462L39.482 30.5832C39.2687 30.3699 38.9551 30.2832 38.6591 30.3592ZM40.6044 38.3384C40.508 38.3489 40.4112 38.3778 40.3232 38.4322L37.2867 40.3072C36.8227 40.5938 36.9472 41.2521 37.4872 41.3775L41.5341 42.315C42.0261 42.4283 42.4597 41.9933 42.2997 41.5493L41.2893 38.7395C41.1883 38.4605 40.8939 38.3069 40.6044 38.3384Z" fill="#7A8189"/>
</g>
<defs>
<filter id="filter0_dd" x="-2" y="-2" width="62" height="62" filterUnits="userSpaceOnUse" color-interpolation-filters="sRGB">
<feFlood flood-opacity="0" result="BackgroundImageFix"/>
<feColorMatrix in="SourceAlpha" type="matrix" values="0 0 0 0 0 0 0 0 0 0 0 0 0 0 0 0 0 0 127 0"/>
<feOffset dx="-5" dy="-5"/>
<feGaussianBlur stdDeviation="5"/>
<feColorMatrix type="matrix" values="0 0 0 0 0 0 0 0 0 0 0 0 0 0 0 0 0 0 0.2 0"/>
<feBlend mode="normal" in2="BackgroundImageFix" result="effect1_dropShadow"/>
<feColorMatrix in="SourceAlpha" type="matrix" values="0 0 0 0 0 0 0 0 0 0 0 0 0 0 0 0 0 0 127 0"/>
<feOffset dx="5" dy="5"/>
<feGaussianBlur stdDeviation="5"/>
<feColorMatrix type="matrix" values="0 0 0 0 0.792157 0 0 0 0 0.831373 0 0 0 0 0.886275 0 0 0 0.12 0"/>
<feBlend mode="normal" in2="effect1_dropShadow" result="effect2_dropShadow"/>
<feBlend mode="normal" in="SourceGraphic" in2="effect2_dropShadow" result="shape"/>
</filter>
</defs>
</svg>
