<svg viewBox="0 0 27 27" fill="none" xmlns="http://www.w3.org/2000/svg">
<path d="M24.5312 11.2967H23.625V11.25H13.5V15.75H19.8579C18.9304 18.3696 16.4379 20.25 13.5 20.25C9.77231 20.25 6.75 17.2277 6.75 13.5C6.75 9.77231 9.77231 6.75 13.5 6.75C15.2207 6.75 16.7861 7.39912 17.9781 8.45944L21.1601 5.27737C19.1509 3.40481 16.4633 2.25 13.5 2.25C7.28719 2.25 2.25 7.28719 2.25 13.5C2.25 19.7128 7.28719 24.75 13.5 24.75C19.7128 24.75 24.75 19.7128 24.75 13.5C24.75 12.7457 24.6724 12.0094 24.5312 11.2967Z" fill="#FFC107"/>
<path d="M3.54688 8.26369L7.24306 10.9744C8.24319 8.49825 10.6653 6.75 13.4998 6.75C15.2204 6.75 16.7859 7.39913 17.9778 8.45944L21.1599 5.27738C19.1506 3.40481 16.463 2.25 13.4998 2.25C9.17863 2.25 5.43125 4.68956 3.54688 8.26369Z" fill="#FF3D00"/>
<path d="M13.4997 24.75C16.4056 24.75 19.0459 23.638 21.0422 21.8295L17.5604 18.8831C16.4309 19.7387 15.0269 20.25 13.4997 20.25C10.5736 20.25 8.089 18.3842 7.153 15.7804L3.48438 18.607C5.34625 22.2503 9.12738 24.75 13.4997 24.75Z" fill="#4CAF50"/>
<path d="M24.5312 11.2967H23.625V11.25H13.5V15.75H19.8579C19.4124 17.0083 18.603 18.0934 17.559 18.8837C17.5596 18.8831 17.5601 18.8831 17.5607 18.8826L21.0426 21.8289C20.7962 22.0528 24.75 19.125 24.75 13.5C24.75 12.7457 24.6724 12.0094 24.5312 11.2967Z" fill="#1976D2"/>
</svg>
