<svg viewBox="0 0 22 19" xmlns="http://www.w3.org/2000/svg">
<path d="M12.1434 0.000434795C11.8836 0.00817593 11.637 0.116755 11.4559 0.303169L10.4559 1.30317L6.30355 5.45356C6.30187 5.45525 6.30131 5.45772 6.29964 5.45942L5.30355 6.45551C5.20758 6.54766 5.13096 6.65803 5.07817 6.78016C5.02539 6.90228 4.99751 7.03372 4.99615 7.16676C4.9948 7.2998 5.02001 7.43177 5.0703 7.55494C5.12058 7.67812 5.19495 7.79002 5.28902 7.8841C5.3831 7.97818 5.49501 8.05254 5.61818 8.10283C5.74136 8.15312 5.87333 8.17833 6.00637 8.17697C6.13941 8.17562 6.27084 8.14774 6.39297 8.09495C6.5151 8.04217 6.62547 7.96555 6.71761 7.86958L7.01254 7.57465L8.9266 9.48872L1.29379 17.1215C1.19781 17.2137 1.12119 17.324 1.0684 17.4462C1.01562 17.5683 0.987733 17.6997 0.98638 17.8328C0.985026 17.9658 1.01023 18.0978 1.06052 18.221C1.11081 18.3441 1.18517 18.456 1.27925 18.5501C1.37333 18.6442 1.48523 18.7186 1.60841 18.7689C1.73159 18.8191 1.86356 18.8444 1.9966 18.843C2.12964 18.8416 2.26108 18.8138 2.38321 18.761C2.50533 18.7082 2.6157 18.6316 2.70785 18.5356L10.3407 10.9028L12.4266 12.9887L12.1336 13.2817C12.0377 13.3738 11.961 13.4842 11.9083 13.6063C11.8555 13.7285 11.8276 13.8599 11.8262 13.9929C11.8249 14.126 11.8501 14.2579 11.9004 14.3811C11.9507 14.5043 12.025 14.6162 12.1191 14.7103C12.2132 14.8044 12.3251 14.8787 12.4483 14.929C12.5714 14.9793 12.7034 15.0045 12.8364 15.0031C12.9695 15.0018 13.1009 14.9739 13.223 14.9211C13.3452 14.8683 13.4555 14.7917 13.5477 14.6957L14.5457 13.6957L18.6981 9.54536L20.036 8.20747C20.1805 8.067 20.2792 7.88616 20.3191 7.68864C20.3591 7.49112 20.3384 7.28614 20.2599 7.10055C20.1814 6.91497 20.0486 6.75744 19.879 6.64861C19.7094 6.53978 19.5108 6.48473 19.3094 6.49067C19.0496 6.49841 18.803 6.60699 18.6219 6.7934L17.9911 7.42426L12.577 2.0102L12.87 1.71723C13.0145 1.57677 13.1132 1.39593 13.1531 1.19841C13.1931 1.00089 13.1724 0.795904 13.0939 0.610318C13.0154 0.424733 12.8826 0.267203 12.713 0.158374C12.5434 0.0495456 12.3448 -0.0055058 12.1434 0.000434795ZM13.0164 17.0004C12.8839 16.9986 12.7524 17.023 12.6294 17.0725C12.5064 17.1219 12.3945 17.1952 12.3001 17.2883C12.2058 17.3813 12.1308 17.4922 12.0797 17.6144C12.0285 17.7367 12.0022 17.8679 12.0022 18.0004C12.0022 18.133 12.0285 18.2642 12.0797 18.3864C12.1308 18.5087 12.2058 18.6196 12.3001 18.7126C12.3945 18.8056 12.5064 18.879 12.6294 18.9284C12.7524 18.9778 12.8839 19.0023 13.0164 19.0004H20.0047C20.1372 19.0023 20.2688 18.9778 20.3918 18.9284C20.5147 18.879 20.6267 18.8056 20.721 18.7126C20.8154 18.6196 20.8903 18.5087 20.9415 18.3864C20.9926 18.2642 21.019 18.133 21.019 18.0004C21.019 17.8679 20.9926 17.7367 20.9415 17.6144C20.8903 17.4922 20.8154 17.3813 20.721 17.2883C20.6267 17.1952 20.5147 17.1219 20.3918 17.0725C20.2688 17.023 20.1372 16.9986 20.0047 17.0004H13.0164Z" />
</svg>
