<svg viewBox="0 0 14 9" fill="none" xmlns="http://www.w3.org/2000/svg">
    <path fill-rule="evenodd" clip-rule="evenodd" d="M9.33333 0C8.86473 0 8.48485 0.37988 8.48485 0.848485C8.48485 1.31709 8.86473 1.69697 9.33333 1.69697H11.1031L7.63636 5.1637L5.69088 3.21821C5.35952 2.88686 4.82229 2.88686 4.49094 3.21821L0.248515 7.46064C-0.0828385 7.79199 -0.0828385 8.32922 0.248515 8.66057C0.579869 8.99193 1.1171 8.99193 1.44845 8.66057L5.09091 5.01812L7.03639 6.96361C7.36775 7.29496 7.90498 7.29496 8.23633 6.96361L12.303 2.89691V5.09091C12.303 5.55951 12.6829 5.93939 13.1515 5.93939C13.6201 5.93939 14 5.55951 14 5.09091V0.848485C14 0.37988 13.6201 0 13.1515 0H9.33333Z" fill="url(#paint0_linear)"/>
    <defs>
    <linearGradient id="paint0_linear" x1="7" y1="0" x2="7" y2="8.90909" gradientUnits="userSpaceOnUse">
    <stop stop-color="#ED9511"/>
    <stop offset="1" stop-color="#8B521E"/>
    </linearGradient>
    </defs>
</svg>
