<svg viewBox="0 0 49 58" fill="none" xmlns="http://www.w3.org/2000/svg">
<g filter="url(#filter0_dd)">
<path d="M22.6665 17.0001V26.3334H21.3332L19.9998 17.6667C19.9998 17.6667 19.9998 17.0001 18.6665 17.0001C17.3332 17.0001 17.3332 18.3334 17.3332 18.3334L18.6665 27.6667V30.8334L25.4999 28.1251L26.2915 30.0834C26.9999 31.8438 26.1561 33.8751 24.4165 34.6251L23.3332 35.0834C24.3697 35.3386 25.8905 35.9949 26.7082 37.6251L25.4999 38.2084C24.5572 36.3178 22.2342 36.2501 22.2082 36.2501H21.7915L21.0415 34.6251L23.9165 33.4167C24.9999 32.9532 25.5259 31.672 25.0832 30.5834L24.7915 29.8334L17.3749 32.7917C15.9582 33.6876 15.5363 35.5574 16.4582 36.9584L19.0415 40.8751C19.6353 41.7865 20.6665 42.3334 21.7499 42.3334H27.9999C30.9478 42.3334 33.3332 39.948 33.3332 37.0001V31.6667H31.9999C30.5259 31.6667 29.3332 30.474 29.3332 29.0001H27.9999C26.677 29.0001 25.3332 27.5834 25.3332 26.3334V17.0001C25.3332 17.0001 25.3332 15.6667 23.9999 15.6667C22.6666 15.6667 22.6665 17.0001 22.6665 17.0001ZM26.6665 22.3334V26.3334C26.6665 27.0678 27.2655 27.6667 27.9999 27.6667H29.3332V23.6667C29.3332 22.9324 28.7342 22.3334 27.9999 22.3334H26.6665ZM30.6665 25.0001V29.0001C30.6665 29.7345 31.2655 30.3334 31.9999 30.3334H33.3332V26.3334C33.3332 25.599 32.7342 25.0001 31.9999 25.0001H30.6665Z" fill="#7A8189"/>
</g>
<defs>
<filter id="filter0_dd" x="-7" y="-2" width="62" height="62" filterUnits="userSpaceOnUse" color-interpolation-filters="sRGB">
<feFlood flood-opacity="0" result="BackgroundImageFix"/>
<feColorMatrix in="SourceAlpha" type="matrix" values="0 0 0 0 0 0 0 0 0 0 0 0 0 0 0 0 0 0 127 0"/>
<feOffset dx="-5" dy="-5"/>
<feGaussianBlur stdDeviation="5"/>
<feColorMatrix type="matrix" values="0 0 0 0 0 0 0 0 0 0 0 0 0 0 0 0 0 0 0.2 0"/>
<feBlend mode="normal" in2="BackgroundImageFix" result="effect1_dropShadow"/>
<feColorMatrix in="SourceAlpha" type="matrix" values="0 0 0 0 0 0 0 0 0 0 0 0 0 0 0 0 0 0 127 0"/>
<feOffset dx="5" dy="5"/>
<feGaussianBlur stdDeviation="5"/>
<feColorMatrix type="matrix" values="0 0 0 0 0.792157 0 0 0 0 0.831373 0 0 0 0 0.886275 0 0 0 0.12 0"/>
<feBlend mode="normal" in2="effect1_dropShadow" result="effect2_dropShadow"/>
<feBlend mode="normal" in="SourceGraphic" in2="effect2_dropShadow" result="shape"/>
</filter>
</defs>
</svg>
